<svg width="24" height="24" viewBox="0 0 24 24" fill="none" xmlns="http://www.w3.org/2000/svg">
<path d="M6.34659 12.7898L13.5593 20.0025C13.9523 20.3955 13.9495 21.0335 13.5531 21.423L13.3605 21.6122C12.969 21.9968 12.3406 21.994 11.9525 21.6059L2.70711 12.3605C2.31658 11.97 2.31658 11.3368 2.70711 10.9463L11.9525 1.70088C12.3406 1.31279 12.969 1.31001 13.3605 1.69465L13.5531 1.88386C13.9495 2.27334 13.9523 2.91133 13.5593 3.3043L6.34659 10.517H21C21.5523 10.517 22 10.9648 22 11.517V11.7898C22 12.3421 21.5523 12.7898 21 12.7898H6.34659Z" fill="#464646"/>
</svg>
