<svg width="30" height="30" viewBox="0 0 30 30" fill="none" xmlns="http://www.w3.org/2000/svg">
<rect width="30" height="30" rx="8" fill="#FFFBF5"/>
<path d="M15 8.5C15.2652 8.5 15.5196 8.60536 15.7071 8.79289C15.8946 8.98043 16 9.23478 16 9.5V14.5H21C21.2652 14.5 21.5196 14.6054 21.7071 14.7929C21.8946 14.9804 22 15.2348 22 15.5C22 15.7652 21.8946 16.0196 21.7071 16.2071C21.5196 16.3946 21.2652 16.5 21 16.5H16V21.5C16 21.7652 15.8946 22.0196 15.7071 22.2071C15.5196 22.3946 15.2652 22.5 15 22.5C14.7348 22.5 14.4804 22.3946 14.2929 22.2071C14.1054 22.0196 14 21.7652 14 21.5V16.5H9C8.73478 16.5 8.48043 16.3946 8.29289 16.2071C8.10536 16.0196 8 15.7652 8 15.5C8 15.2348 8.10536 14.9804 8.29289 14.7929C8.48043 14.6054 8.73478 14.5 9 14.5H14V9.5C14 9.23478 14.1054 8.98043 14.2929 8.79289C14.4804 8.60536 14.7348 8.5 15 8.5Z" fill="#F5DA7F"/>
</svg>
