<svg width="24" height="24" viewBox="0 0 24 24" fill="none" xmlns="http://www.w3.org/2000/svg">
<circle cx="12" cy="12" r="12" fill="white"/>
<path fill-rule="evenodd" clip-rule="evenodd" d="M13.3933 6C13.6499 6.00007 13.8998 6.08084 14.1079 6.23088C14.316 6.38092 14.4716 6.59263 14.5526 6.836L14.8844 7.83333H16.8889C17.051 7.83333 17.2064 7.89772 17.321 8.01232C17.4356 8.12693 17.5 8.28237 17.5 8.44444C17.5 8.60652 17.4356 8.76196 17.321 8.87656C17.2064 8.99117 17.051 9.05556 16.8889 9.05556L16.8871 9.09894L16.3572 16.5197C16.3242 16.982 16.1172 17.4147 15.7779 17.7306C15.4387 18.0465 14.9923 18.2222 14.5288 18.2222H9.47122C9.00767 18.2222 8.56134 18.0465 8.22209 17.7306C7.88284 17.4147 7.67584 16.982 7.64278 16.5197L7.11294 9.09833L7.11111 9.05556C6.94903 9.05556 6.7936 8.99117 6.67899 8.87656C6.56438 8.76196 6.5 8.60652 6.5 8.44444C6.5 8.28237 6.56438 8.12693 6.67899 8.01232C6.7936 7.89772 6.94903 7.83333 7.11111 7.83333H9.11556L9.44739 6.836C9.52848 6.59253 9.68415 6.38075 9.89234 6.2307C10.1005 6.08065 10.3507 5.99994 10.6073 6H13.3933ZM10.1667 10.8889C10.017 10.8889 9.87252 10.9439 9.76066 11.0433C9.64881 11.1428 9.57735 11.2798 9.55983 11.4285L9.55556 11.5V15.1667C9.55573 15.3224 9.61537 15.4722 9.7223 15.5855C9.82922 15.6988 9.97536 15.7669 10.1309 15.776C10.2863 15.7852 10.4395 15.7346 10.5589 15.6346C10.6783 15.5346 10.7551 15.3928 10.7735 15.2382L10.7778 15.1667V11.5C10.7778 11.3379 10.7134 11.1825 10.5988 11.0679C10.4842 10.9533 10.3287 10.8889 10.1667 10.8889ZM13.8333 10.8889C13.6713 10.8889 13.5158 10.9533 13.4012 11.0679C13.2866 11.1825 13.2222 11.3379 13.2222 11.5V15.1667C13.2222 15.3287 13.2866 15.4842 13.4012 15.5988C13.5158 15.7134 13.6713 15.7778 13.8333 15.7778C13.9954 15.7778 14.1508 15.7134 14.2655 15.5988C14.3801 15.4842 14.4444 15.3287 14.4444 15.1667V11.5C14.4444 11.3379 14.3801 11.1825 14.2655 11.0679C14.1508 10.9533 13.9954 10.8889 13.8333 10.8889ZM13.3933 7.22222H10.6067L10.4032 7.83333H13.5968L13.3933 7.22222Z" fill="#F5DA7F"/>
</svg>
