<svg width="20" height="20" viewBox="0 0 20 20" fill="none" xmlns="http://www.w3.org/2000/svg">
<circle cx="10" cy="10" r="10" fill="white"/>
<path fill-rule="evenodd" clip-rule="evenodd" d="M11.3933 4C11.6499 4.00007 11.8998 4.08084 12.1079 4.23088C12.316 4.38092 12.4716 4.59263 12.5526 4.836L12.8844 5.83333H14.8889C15.051 5.83333 15.2064 5.89772 15.321 6.01232C15.4356 6.12693 15.5 6.28237 15.5 6.44444C15.5 6.60652 15.4356 6.76196 15.321 6.87656C15.2064 6.99117 15.051 7.05556 14.8889 7.05556L14.8871 7.09894L14.3572 14.5197C14.3242 14.982 14.1172 15.4147 13.7779 15.7306C13.4387 16.0465 12.9923 16.2222 12.5288 16.2222H7.47122C7.00767 16.2222 6.56134 16.0465 6.22209 15.7306C5.88284 15.4147 5.67584 14.982 5.64278 14.5197L5.11294 7.09833L5.11111 7.05556C4.94903 7.05556 4.7936 6.99117 4.67899 6.87656C4.56438 6.76196 4.5 6.60652 4.5 6.44444C4.5 6.28237 4.56438 6.12693 4.67899 6.01232C4.7936 5.89772 4.94903 5.83333 5.11111 5.83333H7.11556L7.44739 4.836C7.52848 4.59253 7.68415 4.38075 7.89234 4.2307C8.10052 4.08065 8.35065 3.99994 8.60728 4H11.3933ZM8.16667 8.88889C8.01698 8.88891 7.87252 8.94386 7.76066 9.04333C7.64881 9.14279 7.57735 9.27985 7.55983 9.4285L7.55556 9.5V13.1667C7.55573 13.3224 7.61537 13.4722 7.7223 13.5855C7.82922 13.6988 7.97536 13.7669 8.13085 13.776C8.28634 13.7852 8.43945 13.7346 8.5589 13.6346C8.67834 13.5346 8.7551 13.3928 8.7735 13.2382L8.77778 13.1667V9.5C8.77778 9.33792 8.71339 9.18248 8.59879 9.06788C8.48418 8.95327 8.32874 8.88889 8.16667 8.88889ZM11.8333 8.88889C11.6713 8.88889 11.5158 8.95327 11.4012 9.06788C11.2866 9.18248 11.2222 9.33792 11.2222 9.5V13.1667C11.2222 13.3287 11.2866 13.4842 11.4012 13.5988C11.5158 13.7134 11.6713 13.7778 11.8333 13.7778C11.9954 13.7778 12.1508 13.7134 12.2655 13.5988C12.3801 13.4842 12.4444 13.3287 12.4444 13.1667V9.5C12.4444 9.33792 12.3801 9.18248 12.2655 9.06788C12.1508 8.95327 11.9954 8.88889 11.8333 8.88889ZM11.3933 5.22222H8.60667L8.40317 5.83333H11.5968L11.3933 5.22222Z" fill="#F5DA7F"/>
</svg>
