<svg width="24" height="24" viewBox="0 0 24 24" fill="none" xmlns="http://www.w3.org/2000/svg">
<g clip-path="url(#clip0_63_2316)">
<path d="M8.75 21.75V13.7334C8.75 13.1267 8.75 12.8233 8.86808 12.5916C8.97194 12.3877 9.13767 12.222 9.34151 12.1181C9.57325 12 9.87661 12 10.4833 12H13.5167C14.1234 12 14.4268 12 14.6585 12.1181C14.8623 12.222 15.0281 12.3877 15.1319 12.5916C15.25 12.8233 15.25 13.1267 15.25 13.7334V21.75M10.9358 1.99439L3.58834 7.70911C3.09719 8.09112 2.85161 8.28212 2.6747 8.52132C2.51798 8.73321 2.40123 8.97191 2.3302 9.2257C2.25 9.51221 2.25 9.82331 2.25 10.4455V18.2834C2.25 19.4968 2.25 20.1035 2.48615 20.567C2.69388 20.9747 3.02534 21.3062 3.43302 21.5139C3.8965 21.75 4.50322 21.75 5.71667 21.75H18.2833C19.4968 21.75 20.1035 21.75 20.567 21.5139C20.9747 21.3062 21.3061 20.9747 21.5138 20.567C21.75 20.1035 21.75 19.4968 21.75 18.2834V10.4455C21.75 9.82331 21.75 9.51221 21.6698 9.2257C21.5988 8.97191 21.482 8.73321 21.3253 8.52132C21.1484 8.28212 20.9028 8.09112 20.4117 7.70911L13.0642 1.99439C12.6836 1.69837 12.4933 1.55036 12.2831 1.49346C12.0977 1.44326 11.9023 1.44326 11.7169 1.49346C11.5067 1.55036 11.3164 1.69837 10.9358 1.99439Z" stroke="#464646" stroke-width="2" stroke-linecap="round" stroke-linejoin="round"/>
</g>
<defs>
<clipPath id="clip0_63_2316">
<rect width="24" height="24" fill="white"/>
</clipPath>
</defs>
</svg>
