<svg width="21" height="21" viewBox="0 0 21 21" fill="none" xmlns="http://www.w3.org/2000/svg">
<path fill-rule="evenodd" clip-rule="evenodd" d="M10.5 0.0410156C16.0917 0.0410156 20.625 3.94198 20.625 8.75558C20.625 13.5692 16.0917 17.471 10.5 17.471C9.8916 17.471 9.2949 17.4248 8.7162 17.3359L4.6707 20.0121C4.63789 20.0339 4.59937 20.0452 4.5601 20.0448C4.52083 20.0443 4.48259 20.032 4.45029 20.0095C4.41799 19.987 4.39309 19.9553 4.37881 19.9184C4.36452 19.8815 4.36149 19.8412 4.3701 19.8026L5.1873 16.1765C2.2992 14.6415 0.375 11.8918 0.375 8.75558C0.375 3.94288 4.9083 0.0410156 10.5 0.0410156Z" fill="#371F1F"/>
</svg>
