<svg width="20" height="20" viewBox="0 0 20 20" fill="none" xmlns="http://www.w3.org/2000/svg">
<circle cx="10" cy="10" r="10" fill="white"/>
<path d="M14.0001 7.33325H13.3334V6.66658C13.3334 4.82859 11.8381 3.33325 10.0001 3.33325C8.16208 3.33325 6.66675 4.82859 6.66675 6.66658V7.33325H6.00008C5.64646 7.33325 5.30732 7.47373 5.05727 7.72378C4.80722 7.97382 4.66675 8.31296 4.66675 8.66658V15.3333C4.66675 15.6869 4.80722 16.026 5.05727 16.2761C5.30732 16.5261 5.64646 16.6666 6.00008 16.6666H14.0001C14.3537 16.6666 14.6928 16.5261 14.9429 16.2761C15.1929 16.026 15.3334 15.6869 15.3334 15.3333V8.66658C15.3334 8.31296 15.1929 7.97382 14.9429 7.72378C14.6928 7.47373 14.3537 7.33325 14.0001 7.33325ZM8.00008 6.66658C8.00008 5.56392 8.89741 4.66659 10.0001 4.66659C11.1027 4.66659 12.0001 5.56392 12.0001 6.66658V7.33325H8.00008V6.66658ZM10.6667 12.4819V13.9999H9.33342V12.4819C8.93675 12.2513 8.66675 11.8259 8.66675 11.3333C8.66675 10.9796 8.80722 10.6405 9.05727 10.3904C9.30732 10.1404 9.64646 9.99992 10.0001 9.99992C10.3537 9.99992 10.6928 10.1404 10.9429 10.3904C11.1929 10.6405 11.3334 10.9796 11.3334 11.3333C11.3334 11.8253 11.0634 12.2506 10.6667 12.4819Z" fill="#F5DA7F"/>
</svg>
