<svg width="24" height="24" viewBox="0 0 24 24" fill="none" xmlns="http://www.w3.org/2000/svg">
<circle cx="12" cy="12" r="12" fill="white"/>
<path d="M16.0001 9.33325H15.3334V8.66659C15.3334 6.82859 13.8381 5.33325 12.0001 5.33325C10.1621 5.33325 8.66675 6.82859 8.66675 8.66659V9.33325H8.00008C7.64646 9.33325 7.30732 9.47373 7.05727 9.72378C6.80722 9.97382 6.66675 10.313 6.66675 10.6666V17.3333C6.66675 17.6869 6.80722 18.026 7.05727 18.2761C7.30732 18.5261 7.64646 18.6666 8.00008 18.6666H16.0001C16.3537 18.6666 16.6928 18.5261 16.9429 18.2761C17.1929 18.026 17.3334 17.6869 17.3334 17.3333V10.6666C17.3334 10.313 17.1929 9.97382 16.9429 9.72378C16.6928 9.47373 16.3537 9.33325 16.0001 9.33325ZM10.0001 8.66659C10.0001 7.56392 10.8974 6.66659 12.0001 6.66659C13.1027 6.66659 14.0001 7.56392 14.0001 8.66659V9.33325H10.0001V8.66659ZM12.6667 14.4819V15.9999H11.3334V14.4819C10.9367 14.2513 10.6667 13.8259 10.6667 13.3333C10.6667 12.9796 10.8072 12.6405 11.0573 12.3904C11.3073 12.1404 11.6465 11.9999 12.0001 11.9999C12.3537 11.9999 12.6928 12.1404 12.9429 12.3904C13.1929 12.6405 13.3334 12.9796 13.3334 13.3333C13.3334 13.8253 13.0634 14.2506 12.6667 14.4819Z" fill="#F5DA7F"/>
</svg>
