<svg width="24" height="24" viewBox="0 0 24 24" fill="none" xmlns="http://www.w3.org/2000/svg">
<circle cx="12" cy="12" r="12" fill="white"/>
<path d="M17.135 7.01207L6.1597 10.6714C6.11476 10.6863 6.07544 10.7146 6.04695 10.7524C6.01846 10.7903 6.00215 10.8359 6.0002 10.8832C5.99825 10.9305 6.01074 10.9773 6.03601 11.0173C6.06129 11.0574 6.09815 11.0888 6.1417 11.1074L10.175 12.8361C10.1962 12.8452 10.2193 12.8487 10.2422 12.8463C10.2651 12.8438 10.287 12.8355 10.3057 12.8221L14.2597 9.99673C14.3824 9.91007 14.533 10.0607 14.4464 10.1834L11.621 14.1374C11.6078 14.1561 11.5997 14.1779 11.5974 14.2007C11.595 14.2234 11.5986 14.2464 11.6077 14.2674L13.3357 18.3007C13.3542 18.3443 13.3856 18.3812 13.4256 18.4065C13.4656 18.4319 13.5124 18.4444 13.5597 18.4425C13.607 18.4407 13.6526 18.4244 13.6905 18.396C13.7284 18.3676 13.7567 18.3283 13.7717 18.2834L17.431 7.3074C17.4448 7.26626 17.4468 7.2221 17.4369 7.17987C17.427 7.13764 17.4054 7.09902 17.3748 7.06834C17.3441 7.03767 17.3055 7.01615 17.2632 7.00621C17.221 6.99627 17.1762 6.9983 17.135 7.01207Z" fill="#F5DA7F"/>
</svg>
