<svg width="20" height="20" viewBox="0 0 20 20" fill="none" xmlns="http://www.w3.org/2000/svg">
<circle cx="10" cy="10" r="10" fill="white"/>
<path d="M15.135 5.01207L4.1597 8.6714C4.11476 8.68635 4.07544 8.71461 4.04695 8.75244C4.01846 8.79027 4.00215 8.83587 4.0002 8.88319C3.99825 8.93051 4.01074 8.9773 4.03601 9.01735C4.06129 9.05739 4.09815 9.0888 4.1417 9.1074L8.17504 10.8361C8.19617 10.8452 8.21932 10.8487 8.24221 10.8463C8.26511 10.8438 8.28699 10.8355 8.3057 10.8221L12.2597 7.99673C12.3824 7.91007 12.533 8.06073 12.4464 8.1834L9.62104 12.1374C9.60784 12.1561 9.59969 12.1779 9.59735 12.2007C9.59502 12.2234 9.59858 12.2464 9.6077 12.2674L11.3357 16.3007C11.3542 16.3443 11.3856 16.3812 11.4256 16.4065C11.4656 16.4319 11.5124 16.4444 11.5597 16.4425C11.607 16.4407 11.6526 16.4244 11.6905 16.396C11.7284 16.3676 11.7567 16.3283 11.7717 16.2834L15.431 5.3074C15.4448 5.26626 15.4468 5.2221 15.4369 5.17987C15.427 5.13764 15.4054 5.09902 15.3748 5.06834C15.3441 5.03767 15.3055 5.01615 15.2632 5.00621C15.221 4.99627 15.1762 4.9983 15.135 5.01207Z" fill="#F5DA7F"/>
</svg>
