<svg width="24" height="24" viewBox="0 0 24 24" fill="none" xmlns="http://www.w3.org/2000/svg">
<path d="M18.4704 1C17.9301 0.999788 17.3969 1.12364 16.912 1.362C16.4271 1.60036 16.0033 1.94688 15.6735 2.37484C15.3436 2.8028 15.1164 3.30078 15.0094 3.83041C14.9023 4.36004 14.9183 4.90717 15.0561 5.42965C14.9711 5.44844 14.8892 5.47893 14.8126 5.52024L11.5689 7.28857L7.44393 9.64752C7.40313 9.67179 7.36384 9.69851 7.32628 9.72752C6.75242 9.38815 6.09418 9.21825 5.42776 9.23749C4.76134 9.25673 4.114 9.46431 3.56067 9.83622C3.00734 10.2081 2.57066 10.7291 2.30118 11.339C2.0317 11.9488 1.94044 12.6224 2.03797 13.2819C2.1355 13.9415 2.41782 14.5599 2.85226 15.0656C3.2867 15.5713 3.85548 15.9437 4.49277 16.1395C5.13005 16.3353 5.80977 16.3467 6.45323 16.1722C7.0967 15.9978 7.6776 15.6446 8.12867 15.1537L11.5712 17.0679L15.0467 18.9633C14.9761 19.2402 14.9408 19.5277 14.9408 19.8257C14.9407 20.6473 15.2272 21.4432 15.751 22.0762C16.2748 22.7092 17.0029 23.1397 17.81 23.2934C18.6171 23.4471 19.4525 23.3144 20.1723 22.9183C20.8921 22.5221 21.4511 21.8873 21.753 21.1232C22.055 20.359 22.0809 19.5135 21.8263 18.7324C21.5717 17.9512 21.0525 17.2834 20.3584 16.8439C19.6642 16.4044 18.8384 16.2209 18.0235 16.3249C17.2085 16.429 16.4553 16.814 15.8938 17.4138L12.4254 15.5231L8.95931 13.5983C9.17105 12.7246 9.04144 11.8031 8.59693 11.0217L12.4301 8.831L15.6573 7.06973C15.7336 7.02748 15.8037 6.97481 15.8656 6.91326C16.2619 7.34613 16.76 7.67333 17.3147 7.86522C17.8694 8.05712 18.4632 8.10766 19.0423 8.01227C19.6214 7.91689 20.1676 7.67858 20.6315 7.31892C21.0953 6.95927 21.4622 6.48962 21.6988 5.95248C21.9354 5.41535 22.0343 4.82769 21.9866 4.24269C21.9389 3.65769 21.746 3.09382 21.4255 2.60213C21.105 2.11043 20.6669 1.70643 20.1509 1.42668C19.6349 1.14694 19.0573 1.00029 18.4704 1Z" fill="#464646"/>
</svg>
