<svg width="44" height="44" viewBox="0 0 44 44" fill="none" xmlns="http://www.w3.org/2000/svg">
<circle cx="22" cy="22" r="22" fill="#FFFBF5"/>
<path d="M16 19.5625C16 19.9035 16.1355 20.2305 16.3766 20.4716C16.6177 20.7128 16.9447 20.8482 17.2857 20.8482C17.6267 20.8482 17.9537 20.7128 18.1949 20.4716C18.436 20.2305 18.5714 19.9035 18.5714 19.5625C18.5714 19.2215 18.436 18.8945 18.1949 18.6534C17.9537 18.4122 17.6267 18.2768 17.2857 18.2768C16.9447 18.2768 16.6177 18.4122 16.3766 18.6534C16.1355 18.8945 16 19.2215 16 19.5625ZM25.4286 19.5625C25.4286 19.9035 25.564 20.2305 25.8051 20.4716C26.0463 20.7128 26.3733 20.8482 26.7143 20.8482C27.0553 20.8482 27.3823 20.7128 27.6234 20.4716C27.8645 20.2305 28 19.9035 28 19.5625C28 19.2215 27.8645 18.8945 27.6234 18.6534C27.3823 18.4122 27.0553 18.2768 26.7143 18.2768C26.3733 18.2768 26.0463 18.4122 25.8051 18.6534C25.564 18.8945 25.4286 19.2215 25.4286 19.5625ZM22 10C15.3732 10 10 15.3732 10 22C10 28.6268 15.3732 34 22 34C28.6268 34 34 28.6268 34 22C34 15.3732 28.6268 10 22 10ZM29.0446 29.0446C28.1286 29.9607 27.0625 30.6786 25.8759 31.1821C24.6518 31.7018 23.3473 31.9643 22 31.9643C20.6527 31.9643 19.3482 31.7018 18.1214 31.1821C16.9366 30.6818 15.8604 29.9558 14.9527 29.0446C14.0366 28.1286 13.3188 27.0625 12.8152 25.8759C12.2982 24.6518 12.0357 23.3473 12.0357 22C12.0357 20.6527 12.2982 19.3482 12.8179 18.1214C13.3182 16.9366 14.0442 15.8604 14.9554 14.9527C15.8714 14.0366 16.9375 13.3188 18.1241 12.8152C19.3482 12.2982 20.6527 12.0357 22 12.0357C23.3473 12.0357 24.6518 12.2982 25.8786 12.8179C27.0634 13.3182 28.1396 14.0442 29.0473 14.9554C29.9634 15.8714 30.6813 16.9375 31.1848 18.1241C31.7018 19.3482 31.9643 20.6527 31.9643 22C31.9643 23.3473 31.7018 24.6518 31.1821 25.8786C30.6824 27.0629 29.9563 28.1384 29.0446 29.0446ZM26.0714 22.5625H24.783C24.6705 22.5625 24.5741 22.6482 24.5661 22.7607C24.4643 24.0866 23.3527 25.1339 22 25.1339C20.6473 25.1339 19.533 24.0866 19.4339 22.7607C19.4259 22.6482 19.3295 22.5625 19.217 22.5625H17.9286C17.8995 22.5625 17.8707 22.5683 17.844 22.5798C17.8173 22.5912 17.7932 22.608 17.7731 22.629C17.7531 22.65 17.7375 22.675 17.7274 22.7022C17.7173 22.7295 17.7128 22.7585 17.7143 22.7875C17.8321 25.0455 19.7098 26.8482 22 26.8482C24.2902 26.8482 26.1679 25.0455 26.2857 22.7875C26.2872 22.7585 26.2827 22.7295 26.2726 22.7022C26.2625 22.675 26.2469 22.65 26.2269 22.629C26.2068 22.608 26.1827 22.5912 26.156 22.5798C26.1293 22.5683 26.1005 22.5625 26.0714 22.5625Z" fill="#F5DA7F"/>
</svg>
